<svg width="118" height="107" viewBox="0 0 118 107" fill="none" xmlns="http://www.w3.org/2000/svg">
<path d="M22.125 20.0625H105.708V95.8542H22.125V20.0625Z" fill="black"/>
<path fill-rule="evenodd" clip-rule="evenodd" d="M19.6667 20.0625C19.6667 18.8314 20.7673 17.8333 22.125 17.8333H105.708C107.066 17.8333 108.167 18.8314 108.167 20.0625V95.8542C108.167 97.0853 107.066 98.0833 105.708 98.0833H22.125C20.7673 98.0833 19.6667 97.0853 19.6667 95.8542V20.0625ZM24.5834 22.2917V93.625H103.25V22.2917H24.5834Z" fill="black"/>
<path d="M11 11H94.5833V86.7917H11V11Z" fill="#43C1E7"/>
<path fill-rule="evenodd" clip-rule="evenodd" d="M9.83331 11.1458C9.83331 9.91469 10.9339 8.91666 12.2916 8.91666H95.875C97.2327 8.91666 98.3333 9.91469 98.3333 11.1458V86.9375C98.3333 88.1686 97.2327 89.1667 95.875 89.1667H12.2916C10.9339 89.1667 9.83331 88.1686 9.83331 86.9375V11.1458ZM14.75 13.375V84.7083H93.4166V13.375H14.75Z" fill="black"/>
<path fill-rule="evenodd" clip-rule="evenodd" d="M45.9961 31.366L45.9961 67.366L37.9961 67.366L37.9961 31.366L45.9961 31.366Z" fill="black"/>
<path fill-rule="evenodd" clip-rule="evenodd" d="M57.9961 42.366L57.9961 67.366L49.9961 67.366L49.9961 42.366L57.9961 42.366Z" fill="black"/>
<path fill-rule="evenodd" clip-rule="evenodd" d="M67.2951 59.5506L50.0819 59.366L49.9961 67.3655L67.2092 67.5502L67.2951 59.5506Z" fill="black"/>
<path fill-rule="evenodd" clip-rule="evenodd" d="M59.1979 31.366L25.0858 31L25 38.9995L42.056 39.1825L59.112 39.3655L59.1979 31.366Z" fill="black"/>
<path d="M83.1054 47.658L80.2392 46.9504C78.4059 46.4871 77.3319 45.3509 76.8278 43.9231L75.5665 39.2175C75.5336 39.1245 75.4533 39 75.2064 39C74.9986 39 74.8792 39.1245 74.8463 39.2175L73.585 43.9247C73.0789 45.3525 72.0069 46.4887 70.1736 46.952L67.3074 47.6596C66.902 47.7605 66.8959 48.1986 67.2991 48.3041L70.1859 49.0653C72.013 49.5302 73.0789 50.6649 73.585 52.0863L74.8484 56.74C74.8813 56.833 74.9492 57 75.2085 57C75.4821 57 75.5356 56.833 75.5685 56.74L76.8319 52.0863C77.3381 50.6633 78.4039 49.5286 80.231 49.0653L83.1178 48.3041C83.5169 48.197 83.5108 47.7589 83.1054 47.658Z" fill="black"/>
<path d="M83.3771 47.855C83.3318 47.7683 83.2433 47.6927 83.1055 47.658L80.2393 46.9504C78.406 46.4871 77.3319 45.3509 76.8278 43.9231L75.5665 39.2174C75.548 39.1639 75.4821 39.0662 75.406 39.0378L75.8134 43.7608C76.1159 45.9166 76.3751 46.9315 78.622 47.2278C80.552 47.4831 82.7845 47.7762 83.3771 47.855Z" fill="black"/>
<path d="M83.3832 48.1008L78.4121 48.9739C76.6611 49.3143 75.6961 50.0912 75.6961 52.1241L75.2085 57C75.3752 56.9874 75.511 56.918 75.5686 56.7399L76.8319 52.0863C77.3381 50.6633 78.4039 49.5286 80.231 49.0653L83.1178 48.3041C83.2536 48.2663 83.34 48.1891 83.3832 48.1008Z" fill="black"/>
</svg>
