<?xml version="1.0" encoding="UTF-8" standalone="no"?>
<!-- Generator: Adobe Illustrator 19.2.1, SVG Export Plug-In . SVG Version: 6.00 Build 0)  -->
<svg xmlns:dc="http://purl.org/dc/elements/1.1/" xmlns:cc="http://creativecommons.org/ns#" xmlns:rdf="http://www.w3.org/1999/02/22-rdf-syntax-ns#" xmlns:svg="http://www.w3.org/2000/svg" xmlns="http://www.w3.org/2000/svg" xmlns:sodipodi="http://sodipodi.sourceforge.net/DTD/sodipodi-0.dtd" xmlns:inkscape="http://www.inkscape.org/namespaces/inkscape" version="1.1" id="Layer_1" x="0px" y="0px" viewBox="0 0 613.7 458.5" style="enable-background:new 0 0 613.7 458.5;" xml:space="preserve" inkscape:version="0.91 r13725" sodipodi:docname="Wikimedia_España_logo_-_vertical.svg"><metadata id="metadata69"><rdf:RDF><cc:Work rdf:about=""><dc:format>image/svg+xml</dc:format><dc:type rdf:resource="http://purl.org/dc/dcmitype/StillImage"/><dc:title/></cc:Work></rdf:RDF></metadata><defs id="defs67"/><sodipodi:namedview pagecolor="#ffffff" bordercolor="#666666" borderopacity="1" objecttolerance="10" gridtolerance="10" guidetolerance="10" inkscape:pageopacity="0" inkscape:pageshadow="2" inkscape:window-width="1305" inkscape:window-height="744" id="namedview65" showgrid="false" inkscape:zoom="0.67749516" inkscape:cx="91.081242" inkscape:cy="197.3336" inkscape:window-x="1207" inkscape:window-y="24" inkscape:window-maximized="1" inkscape:current-layer="Layer_1"/><style type="text/css" id="style3">
	.st0{display:none;}
	.st1{fill:#FFFFFF;}
</style><g class="st0" id="g47"><path class="st1" d="M317.3,216c35.9-5.1,63.5-35.9,63.5-73.3c0-22.7-10.2-43-26.3-56.5l-37.3,37.3V216z" id="path49"/><path class="st1" d="M296.4,216v-92.5l-37.3-37.3c-16.1,13.6-26.3,33.9-26.3,56.5C232.9,180,260.5,210.9,296.4,216z" id="path51"/><path class="st1" d="M371.2,78.4c17.2,17.2,26.6,40,26.6,64.3s-9.5,47.1-26.6,64.3c-17.2,17.2-40,26.6-64.3,26.6   c-24.3,0-47.1-9.5-64.3-26.6s-26.6-40-26.6-64.3c0-24.3,9.5-47.1,26.6-64.3c1.5-1.5,3-2.9,4.5-4.2l-20.8-20.8   c-1.5,1.4-3,2.8-4.5,4.3c-11,11-19.7,23.9-25.8,38.2c-6.3,14.8-9.5,30.6-9.5,46.8c0,16.2,3.2,32,9.5,46.8   c6.1,14.3,14.7,27.2,25.8,38.2c11,11,23.9,19.7,38.2,25.8c14.8,6.3,30.6,9.5,46.8,9.5c16.2,0,32-3.2,46.8-9.5   c14.3-6.1,27.2-14.7,38.2-25.8c11-11,19.7-23.9,25.8-38.2c6.3-14.8,9.5-30.6,9.5-46.8c0-16.2-3.2-32-9.5-46.8   c-6.1-14.3-14.7-27.2-25.8-38.2c-1.5-1.5-3-2.9-4.5-4.3l-20.8,20.8C368.2,75.5,369.7,76.9,371.2,78.4z" id="path53"/><circle id="red_circle_52_" class="st1" cx="306.9" cy="59.3" r="37.5"/></g><path d="M 306.90039 21.800781 A 37.5 37.5 0 0 0 269.40039 59.300781 A 37.5 37.5 0 0 0 306.90039 96.800781 A 37.5 37.5 0 0 0 344.40039 59.300781 A 37.5 37.5 0 0 0 306.90039 21.800781 z M 226.30078 53.400391 C 224.80078 54.800391 223.30078 56.199219 221.80078 57.699219 C 210.80078 68.699219 202.1 81.600391 196 95.900391 C 189.7 110.70039 186.5 126.49922 186.5 142.69922 C 186.5 158.89922 189.7 174.7 196 189.5 C 202.1 203.8 210.70078 216.69922 221.80078 227.69922 C 232.80078 238.69922 245.7 247.4 260 253.5 C 274.8 259.8 290.60078 263 306.80078 263 C 323.00078 263 338.79961 259.8 353.59961 253.5 C 367.89961 247.4 380.80078 238.79922 391.80078 227.69922 C 402.80078 216.69922 411.49961 203.8 417.59961 189.5 C 423.89961 174.7 427.09961 158.89922 427.09961 142.69922 C 427.09961 126.49922 423.89961 110.70039 417.59961 95.900391 C 411.49961 81.600391 402.90078 68.699219 391.80078 57.699219 C 390.30078 56.199219 388.80078 54.800391 387.30078 53.400391 L 366.5 74.199219 C 368.2 75.499219 369.69922 76.900391 371.19922 78.400391 C 388.39922 95.600391 397.80078 118.39922 397.80078 142.69922 C 397.80078 166.99922 388.29922 189.8 371.19922 207 C 353.99922 224.2 331.20039 233.59961 306.90039 233.59961 C 282.60039 233.59961 259.79961 224.1 242.59961 207 C 225.39961 189.9 216 166.99922 216 142.69922 C 216 118.39922 225.49961 95.600391 242.59961 78.400391 C 244.09961 76.900391 245.59961 75.499219 247.09961 74.199219 L 226.30078 53.400391 z M 259.09961 86.199219 C 242.99961 99.799219 232.80078 120.09922 232.80078 142.69922 C 232.90078 179.99922 260.50039 210.9 296.40039 216 L 296.40039 123.5 L 259.09961 86.199219 z M 354.5 86.199219 L 317.19922 123.5 L 317.19922 216 L 317.30078 216 C 353.20078 210.9 380.80078 180.09922 380.80078 142.69922 C 380.80078 119.99922 370.6 99.699219 354.5 86.199219 z M 355.59961 299.30078 L 355.59961 366.40039 L 405 366.40039 L 405 353.19922 L 370.59961 353.19922 L 370.59961 339.30078 L 400.59961 339.30078 L 400.59961 326.5 L 370.59961 326.5 L 370.59961 312.69922 L 404 312.69922 L 404 299.40039 L 404 299.30078 L 355.59961 299.30078 z M 26.5 299.40039 L 49.900391 366.5 L 61 366.5 L 75.599609 319.80078 L 90.300781 366.5 L 101.40039 366.5 L 124.80078 299.40039 L 108.59961 299.40039 L 95.300781 338 L 83.5 299.40039 L 67.900391 299.40039 L 56 338 L 42.699219 299.40039 L 26.5 299.40039 z M 132.90039 299.40039 L 132.90039 366.5 L 147.90039 366.5 L 147.90039 299.40039 L 132.90039 299.40039 z M 164.40039 299.40039 L 164.40039 366.5 L 179.40039 366.5 L 179.40039 347.5 L 186.09961 340 L 205.69922 366.5 L 223.19922 366.5 C 220.09922 362.2 215.50078 355.7 209.30078 347 C 203.10078 338.3 198.8 332.29961 196.5 329.09961 L 223.19922 299.40039 L 204.69922 299.40039 L 179.40039 327 L 179.40039 299.40039 L 164.40039 299.40039 z M 232.5 299.40039 L 232.5 366.5 L 247.5 366.5 L 247.5 299.40039 L 232.5 299.40039 z M 264 299.40039 L 264 366.5 L 279 366.5 L 279 324.30078 L 297 361 L 306 361 L 324.09961 324.30078 L 324.19922 324.30078 L 324.19922 366.5 L 339.19922 366.5 L 339.19922 299.40039 L 319 299.40039 L 301.59961 336.30078 L 284.30078 299.40039 L 264 299.40039 z M 418.30078 299.40039 L 418.30078 366.5 L 441.19922 366.5 C 453.99922 366.5 463.60078 363.50039 469.80078 357.40039 C 476.10078 351.30039 479.19922 342.99961 479.19922 332.59961 C 479.19922 322.19961 475.99961 314.09922 469.59961 308.19922 C 463.19961 302.39922 454.1 299.40039 442 299.40039 L 418.30078 299.40039 z M 492.19922 299.40039 L 492.19922 366.5 L 507.19922 366.5 L 507.19922 299.40039 L 492.19922 299.40039 z M 544.09961 299.40039 L 515.09961 366.5 L 531 366.5 L 537.19922 352 L 565.30078 352 L 571.5 366.5 L 587.59961 366.5 L 558.59961 299.40039 L 544.09961 299.40039 z M 433.30078 312.5 L 441.69922 312.5 C 449.29922 312.5 454.89961 314.20078 458.59961 317.80078 C 462.29961 321.30078 464.09961 326.4 464.09961 333 C 464.09961 339.6 462.29961 344.59961 458.59961 348.09961 C 454.99961 351.59961 449.70078 353.30078 442.80078 353.30078 L 433.30078 353.30078 L 433.30078 312.5 z M 551.19922 319.40039 L 559.59961 338.90039 L 542.80078 338.90039 L 551.19922 319.40039 z M 368.31055 393.33398 C 365.91055 393.33398 364.63086 395.09422 364.63086 398.57422 L 367.5918 398.57422 C 367.5918 397.29422 368.11031 396.61328 369.07031 396.61328 C 370.47031 396.61328 371.47109 398.81445 373.87109 398.81445 C 376.27109 398.81445 377.51172 397.05422 377.51172 393.57422 L 374.5918 393.57422 C 374.5918 394.85422 374.07031 395.5332 373.07031 395.5332 C 371.71031 395.5332 370.51055 393.33398 368.31055 393.33398 z M 233.51953 402.17383 C 227.43953 402.17383 223.32031 405.17461 223.32031 409.97461 C 223.32031 419.93461 238.43945 416.45336 238.43945 422.69336 C 238.43945 424.85336 236.47922 426.09375 233.19922 426.09375 C 230.19922 426.09375 226.6007 424.65367 223.7207 422.01367 L 221.67969 426.09375 C 224.55969 428.73375 228.71914 430.5332 233.11914 430.5332 C 239.27914 430.5332 243.67969 427.45313 243.67969 422.45312 C 243.71969 412.37313 228.59961 415.6532 228.59961 409.5332 C 228.59961 407.6532 230.40016 406.61328 233.16016 406.61328 C 235.28016 406.61328 238.31937 407.37289 241.35938 409.21289 L 243.32031 405.05273 C 240.72031 403.33273 237.15953 402.17383 233.51953 402.17383 z M 179.84961 402.37305 L 179.84961 430.37305 L 200.33008 430.37305 L 200.33008 426.13281 L 184.57031 426.13281 L 184.57031 418.41406 L 198.25 418.41406 L 198.25 414.21289 L 184.57031 414.21289 L 184.57031 406.61328 L 199.84961 406.61328 L 199.84961 402.37305 L 179.84961 402.37305 z M 267.38281 402.37305 L 267.38281 430.37305 L 272.10352 430.37305 L 272.10352 421.93359 L 278.54297 421.93359 C 285.58297 421.93359 289.62305 418.25359 289.62305 411.93359 C 289.62305 405.85359 285.58297 402.37305 278.54297 402.37305 L 267.38281 402.37305 z M 319.48047 402.37305 L 307.11914 430.37305 L 312.03906 430.37305 L 314.7207 424.05273 L 328.83984 424.05273 L 331.51953 430.37305 L 336.56055 430.37305 L 324.32031 402.37305 L 319.48047 402.37305 z M 358.51172 402.37305 L 358.51172 430.37305 L 363.23047 430.37305 L 363.23047 410.29297 L 378.15039 430.37305 L 382.79102 430.37305 L 382.79102 402.37305 L 378.15039 402.37305 L 378.15039 422.49414 L 363.15039 402.37305 L 358.51172 402.37305 z M 417.16992 402.37305 L 404.81055 430.37305 L 409.73047 430.37305 L 412.41016 424.05273 L 426.5293 424.05273 L 429.21094 430.37305 L 434.25 430.37305 L 422.00977 402.37305 L 417.16992 402.37305 z M 272.10352 406.61328 L 278.34375 406.61328 C 282.66375 406.61328 285.10352 408.37273 285.10352 412.05273 C 285.10352 415.85273 282.66375 417.69336 278.34375 417.69336 L 272.10352 417.69336 L 272.10352 406.61328 z M 321.75977 407.41406 L 327.03906 419.85352 L 316.48047 419.85352 L 321.75977 407.41406 z M 419.44922 407.41406 L 424.73047 419.85352 L 414.16992 419.85352 L 419.44922 407.41406 z " id="path58"/></svg>